{"title":"Trackman (2007) [DvdRip] [Xvid] {1337x}-Noir","uid":4442013,"size":741859031,"categoryP":"video","categoryS":"movies","magnet":"?xt=urn:btih:a01180cccc05f65545010bd8b0396e897bcd4eed&amp;dn=Trackman+%282007%29+%5BDvdRip%5D+%5BXvid%5D+%7B1337x%7D-Noir&amp;tr=udp%3A%2F%2Ftracker.openbittorrent.com%3A80&amp;tr=udp%3A%2F%2Fopen.demonii.com%3A1337&amp;tr=udp%3A%2F%2Ftracker.coppersurfer.tk%3A6969&amp;tr=udp%3A%2F%2Fexodus.desync.com%3A6969","seeders":1,"leechers":0,"uploader":"INoirI","files":5,"time":1223854497,"description":"                              Screenshots\n &lt;a href=&quot;\nhttp://i220.photobucket.com/albums/dd94/ItheplagueI/Trackman_0003.jpg&quot; rel=&quot;nofollow&quot; target=&quot;_NEW&quot;&gt;\nhttp://i220.photobucket.com/albums/dd94/ItheplagueI/Trackman_0003.jpg&lt;/a&gt;\n &lt;a href=&quot;\nhttp://i220.photobucket.com/albums/dd94/ItheplagueI/Trackman_0001.jpg&quot; rel=&quot;nofollow&quot; target=&quot;_NEW&quot;&gt;\nhttp://i220.photobucket.com/albums/dd94/ItheplagueI/Trackman_0001.jpg&lt;/a&gt;\n &lt;a href=&quot;\nhttp://i220.photobucket.com/albums/dd94/ItheplagueI/Trackman_0000.jpg&quot; rel=&quot;nofollow&quot; target=&quot;_NEW&quot;&gt;\nhttp://i220.photobucket.com/albums/dd94/ItheplagueI/Trackman_0000.jpg&lt;/a&gt;\n &lt;a href=&quot;\nhttp://i220.photobucket.com/albums/dd94/ItheplagueI/Trackman_0002.jpg&quot; rel=&quot;nofollow&quot; target=&quot;_NEW&quot;&gt;\nhttp://i220.photobucket.com/albums/dd94/ItheplagueI/Trackman_0002.jpg&lt;/a&gt;\n\n\n                         *****************\n                         * Trackman 2007 *\n                         *****************\n\n________________________\n   General Information  |  \n________________________|\n_______________________________________________________________\nType                    : Movie                                \nFormat                  : AVI                                  \nFormat/Info             : Audio Video Interleave               \nFile size               : 704Mb                                \nDuration                : 1h 20mn                              \nLanguage                : English\nSource                  : Dvd NTSC                              \nSubtitles               : English,Spanish                             \nGenre                   : Horror | Thriller                  \nIMDB Link               : http://www.imdb.com/title/tt0900381/ \nRating                  : 4.8/10                               \n_______________________________________________________________\n________________________________________________________________\nVideo\nFormat                           : MPEG-4 Visual\nFormat profile                   : Streaming Video@L1\nFormat settings, BVOP            : Yes\nFormat settings, QPel            : No\nFormat settings, GMC             : No warppoints\nFormat settings, Matrix          : Default\nMuxing mode                      : Packed bitstream\nCodec ID                         : XVID\nCodec ID/Hint                    : XviD\nDuration                         : 1h 20mn\nBit rate                         : 1 089 Kbps\nWidth                            : 640 pixels\nHeight                           : 272 pixels\nDisplay aspect ratio             : 2.35\nFrame rate                       : 23.976 fps\nResolution                       : 24 bits\nColorimetry                      : 4:2:0\nScan type                        : Progressive\nBits/(Pixel*Frame)               : 0.261\nStream size                      : 625 MiB (89%)           \n_______________________________________________________________\nAudio\nFormat                           : MPEG Audio\nFormat version                   : Version 1\nFormat profile                   : Layer 3\nCodec ID                         : 55\nCodec ID/Hint                    : MP3\nDuration                         : 1h 20mn\nBit rate mode                    : Constant\nBit rate                         : 128 Kbps\nMinimum bit rate                 : 128 Kbps\nChannel(s)                       : 2 channels\nSampling rate                    : 48.0 KHz\nResolution                       : 16 bits\nStream size                      : 73.5 MiB (10%)\nAlignment                        : Aligned on interleaves\nInterleave, duration             : 42 ms (1.00 video frame)\nInterleave, preload duration     : 504 ms\nWriting library                  : LAME3.98 \nEncoding settings                : CBR                       \n_______________________________________________________________\n________________\n   Description  \n________________\n_______________________________________________________________\nAfter a successful bank heist, a couple of criminals take \nrefuge in the abandoned underground tunnels of a subway \nsystem with their three hostages, and all seems to be going \nas planned until they realize that there&amp;#039;s no way out. What&amp;#039;s \nworse, a demented serial killer with a mission to kill is on \nthe loose and prowling the darkness..          \n_______________________________________________________________\n\n___________________\nNotes              \n___________________\n_______________________________________________________________\nBe aware People are starting to use my tag to create fake files\nMake sure its a real genuine release from me, I have never and \nwill never do Cams,Telesyncs,Telecine or RAR files.Try to check \n1337x.org to see if the file exist.\n \nFuck the fakers and enjoy my release.                   \n_______________________________________________________________\n___________________\n  Post Information \n___________________\n_________________________________\nPosted by............: Noir     \nPosted on............: 10/12/2008\n_________________________________","torrent":{"xt":"urn:btih:a01180cccc05f65545010bd8b0396e897bcd4eed","amp;dn":"Trackman+%282007%29+%5BDvdRip%5D+%5BXvid%5D+%7B1337x%7D-Noir","amp;tr":["udp%3A%2F%2Ftracker.openbittorrent.com%3A80","udp%3A%2F%2Fopen.demonii.com%3A1337","udp%3A%2F%2Ftracker.coppersurfer.tk%3A6969","udp%3A%2F%2Fexodus.desync.com%3A6969"],"infoHash":"a01180cccc05f65545010bd8b0396e897bcd4eed","infoHashBuffer":{"type":"Buffer","data":[160,17,128,204,204,5,246,85,69,1,11,216,176,57,110,137,123,205,78,237]},"announce":[],"urlList":[]}}